<svg preserveAspectRatio="none" width="100%" height="100%" overflow="visible" style="display: block;" viewBox="0 0 53.75 48.75" fill="none" xmlns="http://www.w3.org/2000/svg">
<path id="Vector" fill-rule="evenodd" clip-rule="evenodd" d="M15.87 5.5925C16.5375 2.3175 19.4525 0 22.79 0H30.96C34.2975 0 37.21 2.3175 37.88 5.5925C37.9539 5.95313 38.1469 6.27843 38.428 6.51605C38.7092 6.75366 39.0621 6.88978 39.43 6.9025H39.5125C43.02 7.0575 45.715 7.4875 47.965 8.965C49.3825 9.895 50.6025 11.09 51.5525 12.4875C52.735 14.2225 53.255 16.2175 53.505 18.6275C53.75 20.985 53.75 23.9375 53.75 27.6775V27.89C53.75 31.63 53.75 34.585 53.505 36.94C53.255 39.35 52.735 41.345 51.5525 43.0825C50.5973 44.4789 49.3787 45.6755 47.965 46.605C46.2075 47.7575 44.19 48.2675 41.745 48.51C39.35 48.75 36.3475 48.75 32.5325 48.75H21.2175C17.4025 48.75 14.4 48.75 12.005 48.51C9.56 48.2675 7.5425 47.76 5.785 46.605C4.37111 45.6747 3.15247 44.4773 2.1975 43.08C1.015 41.345 0.495 39.35 0.245 36.94C1.30385e-07 34.585 0 31.63 0 27.89V27.6775C0 23.9375 1.30385e-07 20.985 0.245 18.6275C0.495 16.2175 1.015 14.2225 2.1975 12.4875C3.15247 11.0902 4.37111 9.89277 5.785 8.9625C8.035 7.4875 10.73 7.0575 14.2375 6.905L14.28 6.9025H14.32C14.6879 6.88978 15.0408 6.75366 15.322 6.51605C15.6031 6.27843 15.7961 5.95313 15.87 5.5925ZM22.79 3.75C21.19 3.75 19.8475 4.8575 19.545 6.34C19.0575 8.74 16.9275 10.63 14.365 10.6525C10.995 10.8025 9.19 11.215 7.84 12.1C6.83862 12.7598 5.97509 13.6081 5.2975 14.5975C4.6075 15.61 4.1925 16.9075 3.9725 19.015C3.7525 21.155 3.75 23.915 3.75 27.785C3.75 31.655 3.75 34.4125 3.975 36.5525C4.1925 38.66 4.6075 39.9575 5.3 40.9725C5.97 41.9575 6.8325 42.8075 7.8425 43.47C8.885 44.1525 10.22 44.565 12.3775 44.78C14.5625 44.9975 17.3775 45 21.32 45H32.43C36.37 45 39.185 45 41.3725 44.78C43.53 44.565 44.865 44.155 45.9075 43.47C46.9175 42.8075 47.7825 41.9575 48.4525 40.97C49.1425 39.9575 49.5575 38.66 49.7775 36.5525C49.9975 34.4125 50 31.6525 50 27.785C50 23.9175 50 21.155 49.775 19.015C49.5575 16.9075 49.1425 15.61 48.45 14.5975C47.7727 13.6072 46.9091 12.7581 45.9075 12.0975C44.5625 11.215 42.7575 10.8025 39.3825 10.6525C36.8225 10.6275 34.6925 8.7425 34.205 6.34C34.045 5.60068 33.6348 4.93923 33.0435 4.46735C32.4523 3.99548 31.7164 3.7421 30.96 3.75H22.79ZM26.875 21.25C25.3832 21.25 23.9524 21.8426 22.8975 22.8975C21.8426 23.9524 21.25 25.3832 21.25 26.875C21.25 28.3668 21.8426 29.7976 22.8975 30.8525C23.9524 31.9074 25.3832 32.5 26.875 32.5C28.3668 32.5 29.7976 31.9074 30.8525 30.8525C31.9074 29.7976 32.5 28.3668 32.5 26.875C32.5 25.3832 31.9074 23.9524 30.8525 22.8975C29.7976 21.8426 28.3668 21.25 26.875 21.25ZM17.5 26.875C17.5 24.3886 18.4877 22.004 20.2459 20.2459C22.004 18.4877 24.3886 17.5 26.875 17.5C29.3614 17.5 31.746 18.4877 33.5041 20.2459C35.2623 22.004 36.25 24.3886 36.25 26.875C36.25 29.3614 35.2623 31.746 33.5041 33.5041C31.746 35.2623 29.3614 36.25 26.875 36.25C24.3886 36.25 22.004 35.2623 20.2459 33.5041C18.4877 31.746 17.5 29.3614 17.5 26.875ZM40 19.375C40 18.8777 40.1975 18.4008 40.5492 18.0492C40.9008 17.6975 41.3777 17.5 41.875 17.5H44.375C44.8723 17.5 45.3492 17.6975 45.7008 18.0492C46.0525 18.4008 46.25 18.8777 46.25 19.375C46.25 19.8723 46.0525 20.3492 45.7008 20.7008C45.3492 21.0525 44.8723 21.25 44.375 21.25H41.875C41.3777 21.25 40.9008 21.0525 40.5492 20.7008C40.1975 20.3492 40 19.8723 40 19.375Z" fill="var(--fill-0, #353572)"/>
</svg>
