<svg preserveAspectRatio="none" width="100%" height="100%" overflow="visible" style="display: block;" viewBox="0 0 19.3333 18.875" fill="none" xmlns="http://www.w3.org/2000/svg">
<g id="Group">
<path id="Vector" d="M3.18492 13.6803C1.52575 14.178 0.5 14.8655 0.5 15.625C0.5 17.1439 4.60392 18.375 9.66667 18.375C14.7294 18.375 18.8333 17.1439 18.8333 15.625C18.8333 14.8655 17.8071 14.178 16.1484 13.6803" stroke="var(--stroke-0, #010170)" stroke-linecap="round" stroke-linejoin="round"/>
<path id="Vector_2" d="M9.66667 14.7083C9.66667 14.7083 15.625 10.8143 15.625 6.31258C15.625 3.10242 12.9575 0.5 9.66667 0.5C6.37583 0.5 3.70833 3.10242 3.70833 6.31258C3.70833 10.8143 9.66667 14.7083 9.66667 14.7083Z" stroke="var(--stroke-0, #010170)" stroke-linejoin="round"/>
<path id="Vector_3" d="M9.66667 8.75C10.2745 8.75 10.8573 8.50856 11.2871 8.07879C11.7169 7.64902 11.9583 7.06612 11.9583 6.45833C11.9583 5.85055 11.7169 5.26765 11.2871 4.83788C10.8573 4.40811 10.2745 4.16667 9.66667 4.16667C9.05888 4.16667 8.47598 4.40811 8.04621 4.83788C7.61644 5.26765 7.375 5.85055 7.375 6.45833C7.375 7.06612 7.61644 7.64902 8.04621 8.07879C8.47598 8.50856 9.05888 8.75 9.66667 8.75Z" stroke="var(--stroke-0, #010170)" stroke-linejoin="round"/>
</g>
</svg>
