<svg preserveAspectRatio="none" width="100%" height="100%" overflow="visible" style="display: block;" viewBox="0 0 15.5 17.5" fill="none" xmlns="http://www.w3.org/2000/svg">
<path id="Vector" d="M12.75 7H12.5V4.75C12.5 3.49022 11.9996 2.28204 11.1088 1.39124C10.218 0.500445 9.00978 0 7.75 0C6.49022 0 5.28204 0.500445 4.39124 1.39124C3.50045 2.28204 3 3.49022 3 4.75V7H2.75C2.02065 7 1.32118 7.28973 0.805456 7.80546C0.289731 8.32118 0 9.02065 0 9.75V14.75C0 15.4793 0.289731 16.1788 0.805456 16.6945C1.32118 17.2103 2.02065 17.5 2.75 17.5H12.75C13.4793 17.5 14.1788 17.2103 14.6945 16.6945C15.2103 16.1788 15.5 15.4793 15.5 14.75V9.75C15.5 9.02065 15.2103 8.32118 14.6945 7.80546C14.1788 7.28973 13.4793 7 12.75 7ZM4.5 4.75C4.5 3.88805 4.84241 3.0614 5.4519 2.4519C6.0614 1.84241 6.88805 1.5 7.75 1.5C8.61195 1.5 9.4386 1.84241 10.0481 2.4519C10.6576 3.0614 11 3.88805 11 4.75V7H4.5V4.75ZM14 14.75C14 15.0815 13.8683 15.3995 13.6339 15.6339C13.3995 15.8683 13.0815 16 12.75 16H2.75C2.41848 16 2.10054 15.8683 1.86612 15.6339C1.6317 15.3995 1.5 15.0815 1.5 14.75V9.75C1.5 9.41848 1.6317 9.10054 1.86612 8.86612C2.10054 8.6317 2.41848 8.5 2.75 8.5H12.75C13.0815 8.5 13.3995 8.6317 13.6339 8.86612C13.8683 9.10054 14 9.41848 14 9.75V14.75Z" fill="var(--fill-0, #010138)"/>
</svg>
