<svg preserveAspectRatio="none" width="100%" height="100%" overflow="visible" style="display: block;" viewBox="0 0 44.4792 42.6515" fill="none" xmlns="http://www.w3.org/2000/svg">
<path id="Vector" d="M20.0521 22.7841L17.0312 19.8153C16.6493 19.4334 16.1722 19.2424 15.6 19.2424C15.0278 19.2424 14.5326 19.4508 14.1146 19.8674C13.7326 20.2494 13.5417 20.7355 13.5417 21.3258C13.5417 21.916 13.7326 22.4022 14.1146 22.7841L18.5937 27.2633C19.0104 27.6799 19.4965 27.8883 20.0521 27.8883C20.6076 27.8883 21.0937 27.6799 21.5104 27.2633L30.3646 18.4091C30.7812 17.9924 30.9806 17.5063 30.9625 16.9508C30.9444 16.3952 30.7451 15.9091 30.3646 15.4924C29.9479 15.0758 29.4535 14.8591 28.8812 14.8424C28.309 14.8258 27.8139 15.0251 27.3958 15.4403L20.0521 22.7841ZM14.2187 41.6383L11.1979 36.5341L5.46875 35.2841C4.94792 35.1799 4.53125 34.9112 4.21875 34.4779C3.90625 34.0445 3.78472 33.5667 3.85417 33.0445L4.42708 27.1591L0.520833 22.6799C0.173611 22.298 0 21.8466 0 21.3258C0 20.8049 0.173611 20.3535 0.520833 19.9716L4.42708 15.4924L3.85417 9.60702C3.78472 9.08618 3.90625 8.6084 4.21875 8.17368C4.53125 7.73896 4.94792 7.47021 5.46875 7.36743L11.1979 6.11743L14.2187 1.01327C14.4965 0.561877 14.8785 0.25771 15.3646 0.100765C15.8507 -0.056179 16.3368 -0.0297901 16.8229 0.179932L22.2396 2.4716L27.6563 0.179932C28.1424 -0.0284012 28.6285 -0.0547901 29.1146 0.100765C29.6007 0.256321 29.9826 0.560488 30.2604 1.01327L33.2812 6.11743L39.0104 7.36743C39.5312 7.4716 39.9479 7.74104 40.2604 8.17577C40.5729 8.61049 40.6944 9.08757 40.625 9.60702L40.0521 15.4924L43.9583 19.9716C44.3056 20.3535 44.4792 20.8049 44.4792 21.3258C44.4792 21.8466 44.3056 22.298 43.9583 22.6799L40.0521 27.1591L40.625 33.0445C40.6944 33.5654 40.5729 34.0431 40.2604 34.4779C39.9479 34.9126 39.5312 35.1813 39.0104 35.2841L33.2812 36.5341L30.2604 41.6383C29.9826 42.0897 29.6007 42.3938 29.1146 42.5508C28.6285 42.7077 28.1424 42.6813 27.6563 42.4716L22.2396 40.1799L16.8229 42.4716C16.3368 42.6799 15.8507 42.7063 15.3646 42.5508C14.8785 42.3952 14.4965 42.091 14.2187 41.6383ZM16.9271 37.8883L22.2396 35.5966L27.6563 37.8883L30.5729 32.8883L36.3021 31.5341L35.7812 25.7008L39.6354 21.3258L35.7812 16.8466L36.3021 11.0133L30.5729 9.76327L27.5521 4.76327L22.2396 7.05493L16.8229 4.76327L13.9062 9.76327L8.17708 11.0133L8.69792 16.8466L4.84375 21.3258L8.69792 25.7008L8.17708 31.6383L13.9062 32.8883L16.9271 37.8883Z" fill="url(#paint0_linear_0_97)"/>
<defs>
<linearGradient id="paint0_linear_0_97" x1="22.2396" y1="1.82265e-09" x2="22.2396" y2="42.6515" gradientUnits="userSpaceOnUse">
<stop stop-color="#87722B"/>
<stop offset="1" stop-color="#FFC107"/>
</linearGradient>
</defs>
</svg>
