<svg preserveAspectRatio="none" width="100%" height="100%" overflow="visible" style="display: block;" viewBox="0 0 55.3672 18.9831" fill="none" xmlns="http://www.w3.org/2000/svg">
<path id="visa-logo" fill-rule="evenodd" clip-rule="evenodd" d="M13.8424 18.8352H9.0507L5.45752 4.10872C5.28697 3.4313 4.92485 2.83242 4.39218 2.55017C3.06285 1.84084 1.59801 1.27632 0 0.99161V0.424639H7.71903C8.78437 0.424639 9.58337 1.27632 9.71654 2.26545L11.5809 12.8882L16.3702 0.424639H21.0287L13.8424 18.8352ZM23.6921 18.8352H19.1668L22.8931 0.424639H27.4185L23.6921 18.8352ZM33.2731 5.5249C33.4063 4.53331 34.2053 3.96634 35.1375 3.96634C36.6023 3.82398 38.198 4.1087 39.5297 4.81557L40.3287 0.851683C38.997 0.284712 37.5321 0 36.2028 0C31.8106 0 28.6146 2.55014 28.6146 6.08941C28.6146 8.78191 30.8785 10.1957 32.4765 11.0473C34.2053 11.8966 34.8711 12.4635 34.738 13.3128C34.738 14.5866 33.4063 15.1536 32.077 15.1536C30.479 15.1536 28.881 14.729 27.4184 14.0196L26.6194 17.986C28.2175 18.6929 29.9463 18.9776 31.5443 18.9776C36.4691 19.1175 39.5297 16.5698 39.5297 12.7458C39.5297 7.93023 33.2731 7.64797 33.2731 5.5249V5.5249ZM55.3672 18.8352L51.7741 0.424639H47.9145C47.1155 0.424639 46.3165 0.99161 46.0502 1.84084L39.3965 18.8352H44.055L44.9849 16.1452H50.7087L51.2414 18.8352H55.3672ZM48.5804 5.38261L49.9097 12.3213H46.1834L48.5804 5.38261Z" fill="var(--fill-0, #010170)"/>
</svg>
