<svg preserveAspectRatio="none" width="100%" height="100%" overflow="visible" style="display: block;" viewBox="0 0 40 40" fill="none" xmlns="http://www.w3.org/2000/svg">
<g id="devicon:linkedin" clip-path="url(#clip0_0_530)">
<path id="Vector" d="M36.25 0.9375H3.75C3.0126 0.929995 2.30233 1.21533 1.77506 1.73088C1.24778 2.24644 0.946566 2.95011 0.9375 3.6875V36.3188C0.948206 37.055 1.25014 37.7571 1.77724 38.2713C2.30434 38.7855 3.01367 39.07 3.75 39.0625H36.25C36.9874 39.0683 37.6972 38.782 38.2242 38.2662C38.7512 37.7503 39.0526 37.0468 39.0625 36.3094V3.67813C39.0493 2.9429 38.7465 2.24258 38.2199 1.72939C37.6932 1.2162 36.9853 0.931618 36.25 0.9375Z" fill="var(--fill-0, #0076B2)"/>
<path id="Vector_2" d="M6.58086 15.2281H12.2402V33.4375H6.58086V15.2281ZM9.41211 6.16565C10.0612 6.16565 10.6957 6.35817 11.2354 6.71886C11.7751 7.07954 12.1956 7.59219 12.4439 8.19194C12.6921 8.79169 12.7569 9.4516 12.6301 10.0882C12.5032 10.7248 12.1904 11.3094 11.7312 11.7682C11.272 12.227 10.687 12.5392 10.0503 12.6655C9.41363 12.7917 8.75378 12.7263 8.15426 12.4775C7.55475 12.2287 7.0425 11.8076 6.68233 11.2676C6.32216 10.7276 6.13024 10.0929 6.13086 9.44377C6.13169 8.57407 6.47776 7.74028 7.09302 7.1256C7.70828 6.51092 8.54241 6.16565 9.41211 6.16565ZM15.7902 15.2281H21.2152V17.7281H21.2902C22.0465 16.2969 23.8902 14.7875 26.6434 14.7875C32.3746 14.775 33.4371 18.5469 33.4371 23.4375V33.4375H27.7777V24.5781C27.7777 22.4688 27.7402 19.7531 24.8371 19.7531C21.934 19.7531 21.4402 22.0531 21.4402 24.4406V33.4375H15.7902V15.2281Z" fill="var(--fill-0, #F4F4F8)"/>
</g>
<defs>
<clipPath id="clip0_0_530">
<rect width="40" height="40" fill="white"/>
</clipPath>
</defs>
</svg>
