<svg preserveAspectRatio="none" width="100%" height="100%" overflow="visible" style="display: block;" viewBox="0 0 39.305 35.875" fill="none" xmlns="http://www.w3.org/2000/svg">
<g id="Isolation_Mode" clip-path="url(#clip0_0_556)">
<g id="Subtract">
<path d="M34.3704 0.0956282C35.9802 -0.184323 37.4768 0.0439293 38.483 1.53118C39.6553 3.26355 39.4537 5.10122 38.5787 6.89482C35.8313 12.4684 33.1014 18.0513 30.2927 23.5899C28.2803 27.5709 26.1627 31.4995 23.8704 35.8655C20.4668 29.2421 17.238 22.9596 13.8694 16.4062C10.1601 22.6787 7.56078 29.2745 3.93934 35.6784C3.02473 34.0388 2.44756 32.6167 1.53992 31.4734C-0.550961 28.8312 -0.384891 26.4683 1.2511 23.5198C4.36609 17.9111 7.04392 12.0392 9.87891 6.26421C10.7188 4.55817 11.7344 3.20176 13.8079 3.16667C15.9076 3.13172 16.9225 4.54102 17.7625 6.21208C19.6874 10.0358 21.613 13.8598 23.7567 18.1297C26.3904 12.8798 28.8051 8.06711 31.2113 3.25469C31.92 1.82851 32.6205 0.393193 34.3704 0.0956282Z" fill="var(--fill-0, white)"/>
<path d="M3.94617 35.6912L3.93763 35.6818L3.93934 35.6784C3.94162 35.6825 3.94389 35.6871 3.94617 35.6912Z" fill="var(--fill-0, white)"/>
</g>
</g>
<defs>
<clipPath id="clip0_0_556">
<rect width="39.305" height="35.875" fill="white"/>
</clipPath>
</defs>
</svg>
