<svg width="96" height="96" viewBox="0 0 96 96" fill="none" xmlns="http://www.w3.org/2000/svg">
<circle cx="48" cy="48" r="48" transform="matrix(-1 0 0 1 96 0)" fill="#010138"/>
<g clip-path="url(#clip0_63_8889)">
<mask id="mask0_63_8889" style="mask-type:luminance" maskUnits="userSpaceOnUse" x="33" y="41" width="41" height="36">
<path d="M73.055 41.125H33.75V77H73.055V41.125Z" fill="white"/>
</mask>
<g mask="url(#mask0_63_8889)">
<path d="M68.1189 41.2206C69.7287 40.9407 71.2253 41.1689 72.2315 42.6562C73.4038 44.3885 73.2022 46.2262 72.3272 48.0198C69.5798 53.5934 66.8499 59.1763 64.0412 64.7149C62.0288 68.6959 59.9112 72.6245 57.6189 76.9905C54.2153 70.3671 50.9865 64.0846 47.6179 57.5312C43.9086 63.8037 41.3093 70.3995 37.6878 76.8034C36.7732 75.1638 36.1961 73.7417 35.2884 72.5984C33.1976 69.9562 33.3637 67.5933 34.9996 64.6448C38.1146 59.0361 40.7924 53.1642 43.6274 47.3892C44.4674 45.6832 45.4829 44.3268 47.5564 44.2917C49.6561 44.2567 50.671 45.666 51.511 47.3371C53.4359 51.1608 55.3615 54.9848 57.5052 59.2547C60.1389 54.0048 62.5536 49.1921 64.9598 44.3797C65.6685 42.9535 66.369 41.5182 68.1189 41.2206Z" fill="white"/>
<path d="M37.6961 76.8175L37.6875 76.8081L37.6892 76.8047C37.6915 76.8088 37.6938 76.8134 37.6961 76.8175Z" fill="white"/>
</g>
<mask id="mask1_63_8889" style="mask-type:luminance" maskUnits="userSpaceOnUse" x="25" y="21" width="42" height="41">
<path d="M66.2388 21H25V61.95H66.2388V21Z" fill="white"/>
</mask>
<g mask="url(#mask1_63_8889)">
<path d="M38.0535 23.1784C47.4509 18.5672 59.3071 21.5069 65.5459 29.9417C66.3159 30.9829 66.4821 31.8402 65.7997 32.9777C63.9821 36.0014 62.8624 39.436 60.6454 42.7309C59.7878 38.9612 58.3701 36.0052 55.6671 33.8271C50.8723 29.9424 44.2753 30.0118 39.4454 34.0364C34.8959 37.8253 33.3898 44.5635 36.0146 49.9795C36.5833 51.1519 36.5749 51.9566 35.9625 53.0677C34.4139 55.8763 33.0221 58.7732 31.4209 61.9493C28.8048 57.8369 26.6004 53.8376 25.5591 49.2353C23.2055 38.8407 28.4554 27.8862 38.0535 23.1784Z" fill="white"/>
<path d="M60.6452 42.7339L60.6367 42.7424C60.6392 42.7387 60.6419 42.7343 60.6444 42.7305L60.6452 42.7339Z" fill="white"/>
</g>
<mask id="mask2_63_8889" style="mask-type:luminance" maskUnits="userSpaceOnUse" x="68" y="31" width="11" height="11">
<path d="M78.2262 31.5H68.75V41.3H78.2262V31.5Z" fill="white"/>
</mask>
<g mask="url(#mask2_63_8889)">
<path d="M71.2619 32.9326C72.7317 31.4106 74.6393 31.0257 76.2316 32.1277C77.9027 33.2913 78.5768 34.946 78.0696 37.0282C77.9997 37.3167 77.9291 37.6231 77.7893 37.8767C77.1857 38.9879 77.1591 40.6856 76.0744 41.1844C74.7882 41.7793 74.4641 39.8019 73.4579 39.3293C72.7317 38.9881 72.0314 38.5502 71.2789 38.2877C70.5361 38.0256 69.7323 37.9283 68.7539 37.7101C69.5912 35.8936 70.0477 34.208 71.2619 32.9326Z" fill="#CCCCE2"/>
<path d="M68.75 37.7203V37.7109H68.7534C68.7522 37.7136 68.7512 37.7175 68.75 37.7203Z" fill="#CCCCE2"/>
</g>
</g>
<defs>
<clipPath id="clip0_63_8889">
<rect width="54" height="56" fill="white" transform="translate(25 21)"/>
</clipPath>
</defs>
</svg>
