<svg preserveAspectRatio="none" width="100%" height="100%" overflow="visible" style="display: block;" viewBox="0 0 41.2388 40.95" fill="none" xmlns="http://www.w3.org/2000/svg">
<g id="Isolation_Mode" clip-path="url(#clip0_0_560)">
<g id="Subtract">
<path d="M13.0549 2.17909C22.4523 -2.43212 34.3085 0.507589 40.5473 8.94239C41.3173 9.98363 41.4836 10.8409 40.8011 11.9784C38.9835 15.0021 37.8638 18.4367 35.6468 21.7316C34.7892 17.9619 33.3715 15.0059 30.6685 12.8278C25.8737 8.94309 19.2767 9.01252 14.4469 13.0371C9.89728 16.826 8.39118 23.5642 11.0161 28.9802C11.5847 30.1526 11.5763 30.9573 10.964 32.0684C9.41532 34.877 8.02347 37.7739 6.42233 40.95C3.80616 36.8376 1.60177 32.8383 0.56051 28.236C-1.79309 17.8414 3.45684 6.88685 13.0549 2.17909Z" fill="var(--fill-0, white)"/>
<path d="M35.6477 21.735L35.6391 21.7435C35.6417 21.7398 35.6443 21.7354 35.6468 21.7316L35.6477 21.735Z" fill="var(--fill-0, white)"/>
</g>
</g>
<defs>
<clipPath id="clip0_0_560">
<rect width="41.2388" height="40.95" fill="white"/>
</clipPath>
</defs>
</svg>
