<svg width="54" height="56" viewBox="0 0 54 56" fill="none" xmlns="http://www.w3.org/2000/svg">
<g clip-path="url(#clip0_63_8913)">
<mask id="mask0_63_8913" style="mask-type:luminance" maskUnits="userSpaceOnUse" x="8" y="20" width="41" height="36">
<path d="M48.055 20.125H8.75V56H48.055V20.125Z" fill="white"/>
</mask>
<g mask="url(#mask0_63_8913)">
<path d="M43.1189 20.2206C44.7287 19.9407 46.2253 20.1689 47.2315 21.6562C48.4038 23.3885 48.2022 25.2262 47.3272 27.0198C44.5798 32.5934 41.8499 38.1763 39.0412 43.7149C37.0288 47.6959 34.9112 51.6245 32.6189 55.9905C29.2153 49.3671 25.9865 43.0846 22.6179 36.5312C18.9086 42.8037 16.3093 49.3995 12.6878 55.8034C11.7732 54.1638 11.1961 52.7417 10.2884 51.5984C8.19758 48.9562 8.36365 46.5933 9.99964 43.6448C13.1146 38.0361 15.7924 32.1642 18.6274 26.3892C19.4674 24.6832 20.4829 23.3268 22.5564 23.2917C24.6561 23.2567 25.671 24.666 26.511 26.3371C28.4359 30.1608 30.3615 33.9848 32.5052 38.2547C35.1389 33.0048 37.5536 28.1921 39.9598 23.3797C40.6685 21.9535 41.369 20.5182 43.1189 20.2206Z" fill="#010138"/>
<path d="M12.6961 55.8175L12.6875 55.8081L12.6892 55.8047C12.6915 55.8088 12.6938 55.8134 12.6961 55.8175Z" fill="#010138"/>
</g>
<mask id="mask1_63_8913" style="mask-type:luminance" maskUnits="userSpaceOnUse" x="0" y="0" width="42" height="41">
<path d="M41.2388 0H0V40.95H41.2388V0Z" fill="white"/>
</mask>
<g mask="url(#mask1_63_8913)">
<path d="M13.0535 2.1784C22.4509 -2.43281 34.3071 0.506903 40.5459 8.9417C41.3159 9.98294 41.4821 10.8402 40.7997 11.9777C38.9821 15.0014 37.8624 18.436 35.6454 21.7309C34.7878 17.9612 33.3701 15.0052 30.6671 12.8271C25.8723 8.9424 19.2753 9.01183 14.4454 13.0364C9.89589 16.8253 8.38979 23.5635 11.0146 28.9795C11.5833 30.1519 11.5749 30.9566 10.9625 32.0677C9.41392 34.8763 8.02207 37.7732 6.42092 40.9493C3.80476 36.8369 1.60036 32.8376 0.559111 28.2353C-1.79449 17.8407 3.45545 6.88616 13.0535 2.1784Z" fill="#010138"/>
<path d="M35.6452 21.7339L35.6367 21.7424C35.6392 21.7387 35.6419 21.7343 35.6444 21.7305L35.6452 21.7339Z" fill="#010138"/>
</g>
<mask id="mask2_63_8913" style="mask-type:luminance" maskUnits="userSpaceOnUse" x="43" y="10" width="11" height="11">
<path d="M53.2262 10.5H43.75V20.3H53.2262V10.5Z" fill="white"/>
</mask>
<g mask="url(#mask2_63_8913)">
<path d="M46.2619 11.9326C47.7317 10.4106 49.6393 10.0257 51.2316 11.1277C52.9027 12.2913 53.5768 13.946 53.0696 16.0282C52.9997 16.3167 52.9291 16.6231 52.7893 16.8767C52.1857 17.9879 52.1591 19.6856 51.0744 20.1844C49.7882 20.7793 49.4641 18.8019 48.4579 18.3293C47.7317 17.9881 47.0314 17.5502 46.2789 17.2877C45.5361 17.0256 44.7323 16.9283 43.7539 16.7101C44.5912 14.8936 45.0477 13.208 46.2619 11.9326Z" fill="#010138"/>
<path d="M43.75 16.7203V16.7109H43.7534C43.7522 16.7136 43.7512 16.7175 43.75 16.7203Z" fill="#010138"/>
</g>
</g>
<defs>
<clipPath id="clip0_63_8913">
<rect width="54" height="56" fill="white"/>
</clipPath>
</defs>
</svg>
