<svg width="54" height="56" viewBox="0 0 54 56" fill="none" xmlns="http://www.w3.org/2000/svg">
<g clip-path="url(#clip0_38_2167)">
<path d="M43.1204 20.2206C44.7302 19.9407 46.2268 20.1689 47.233 21.6562C48.4053 23.3885 48.2037 25.2262 47.3287 27.0198C44.5813 32.5934 41.8514 38.1763 39.0427 43.7149C37.0303 47.6959 34.9127 51.6245 32.6204 55.9905C29.2168 49.3671 25.988 43.0846 22.6194 36.5312C18.9101 42.8037 16.3108 49.3995 12.6893 55.8034C11.7747 54.1638 11.1976 52.7417 10.2899 51.5984C8.19904 48.9562 8.36511 46.5933 10.0011 43.6448C13.1161 38.0361 15.7939 32.1642 18.6289 26.3892C19.4689 24.6832 20.4844 23.3268 22.5579 23.2917C24.6576 23.2567 25.6725 24.666 26.5125 26.3371C28.4374 30.1608 30.363 33.9848 32.5067 38.2547C35.1404 33.0048 37.5551 28.1921 39.9613 23.3797C40.67 21.9535 41.3705 20.5182 43.1204 20.2206Z" fill="white"/>
<path d="M12.6962 55.8162L12.6876 55.8068L12.6893 55.8034C12.6916 55.8075 12.6939 55.8121 12.6962 55.8162Z" fill="white"/>
</g>
<g clip-path="url(#clip1_38_2167)">
<path d="M13.055 2.17909C22.4524 -2.43212 34.3086 0.507589 40.5474 8.94239C41.3174 9.98363 41.4836 10.8409 40.8012 11.9784C38.9836 15.0021 37.8639 18.4367 35.6469 21.7316C34.7893 17.9619 33.3716 15.0059 30.6686 12.8278C25.8738 8.94309 19.2768 9.01252 14.4469 13.0371C9.89735 16.826 8.39125 23.5642 11.0161 28.9802C11.5848 30.1526 11.5764 30.9573 10.964 32.0684C9.41539 34.877 8.02354 37.7739 6.42239 40.95C3.80623 36.8376 1.60183 32.8383 0.560576 28.236C-1.79302 17.8414 3.45691 6.88685 13.055 2.17909Z" fill="white"/>
<path d="M35.6477 21.735L35.6392 21.7435C35.6417 21.7398 35.6444 21.7354 35.6469 21.7316L35.6477 21.735Z" fill="white"/>
</g>
<g clip-path="url(#clip2_38_2167)">
<path d="M46.2614 11.9345C47.7312 10.4125 49.6388 10.0276 51.2311 11.1296C52.9022 12.2932 53.5763 13.9479 53.0691 16.0301C52.9992 16.3186 52.9286 16.625 52.7888 16.8786C52.1852 17.9898 52.1586 19.6875 51.0739 20.1863C49.7877 20.7812 49.4636 18.8038 48.4574 18.3312C47.7312 17.99 47.0309 17.5521 46.2784 17.2896C45.5356 17.0275 44.7318 16.9302 43.7534 16.712C44.5907 14.8955 45.0472 13.2099 46.2614 11.9345Z" fill="#CCCCE2"/>
<path d="M43.75 16.7214V16.712H43.7534C43.7522 16.7147 43.7512 16.7186 43.75 16.7214Z" fill="#CCCCE2"/>
</g>
<defs>
<clipPath id="clip0_38_2167">
<rect width="39.305" height="35.875" fill="white" transform="translate(8.75 20.125)"/>
</clipPath>
<clipPath id="clip1_38_2167">
<rect width="41.2388" height="40.95" fill="white"/>
</clipPath>
<clipPath id="clip2_38_2167">
<rect width="9.47625" height="9.8" fill="white" transform="translate(43.75 10.5)"/>
</clipPath>
</defs>
</svg>
